# ProBuilder 4.5.2
# https://unity3d.com/unity/features/worldbuilding/probuilder
# 6/20/2025 3:47:56 PM

mtllib ./Main_Map.mtl
o Main Map

g Main Map
v -62.87502 12.5 5.811453E-06
v -62.87502 12.5 -31.39062
v -62.87502 6.25 -31.39062
v -62.87502 6.25 5.811453E-06
v -62.87502 12.5 -62.78124
v -62.87502 6.25 -62.78124
v -62.87502 -1.490116E-07 -62.78124
v -62.87502 -1.490116E-07 -31.39062
v -62.87502 -1.490116E-07 5.811453E-06
v -5.960464E-06 12.5 -62.78125
v -2.980232E-06 12.5 -31.39063
v -2.980232E-06 6.25 -31.39063
v -5.960464E-06 6.25 -62.78125
v 0 12.5 0
v 0 6.25 0
v 0 0 0
v -2.980232E-06 -7.450581E-08 -31.39063
v -5.960464E-06 -1.490116E-07 -62.78125
v 1.859665E-05 0 90.33796
v 1.859665E-05 6.25 90.33796
v -6.225524 6.25 90.33796
v -6.225524 2.384186E-07 90.33796
v 1.859665E-05 12.5 90.33796
v -6.225524 12.5 90.33796
v -12.45107 12.5 90.33796
v -12.45107 6.25 90.33796
v -12.45107 4.768372E-07 90.33796
v -12.45109 2.812604E-07 4.487111E-06
v -12.45109 6.25 3.742053E-06
v -37.66305 6.25 4.776753E-06
v -37.66305 6.612441E-08 5.149282E-06
v -12.45109 12.5 2.996995E-06
v -37.66305 12.5 4.404224E-06
v -12.45109 1.359723E-07 -62.78125
v -37.66305 -6.519656E-09 -62.78124
v -37.66305 6.25 -62.78124
v -12.45109 6.25 -62.78125
v -37.66305 12.5 -62.78124
v -12.45109 12.5 -62.78125
v -6.225547 -6.519656E-09 -62.78125
v -6.225547 6.25 -62.78125
v -6.225547 12.5 -62.78125
v -6.225545 6.705528E-08 -31.39062
v -12.45109 2.086164E-07 -31.39062
v -6.225543 1.406302E-07 2.243556E-06
v -37.66305 2.980238E-08 -31.39062
v 8.972496E-06 -8.742843E-06 71.07957
v 4.486248E-06 -4.371421E-06 35.53978
v 4.556839E-06 6.249996 35.53978
v 9.113679E-06 6.249991 71.07957
v 4.627431E-06 12.5 35.53978
v 9.254862E-06 12.49999 71.07957
v 89.9577 -1.430511E-06 90.33792
v 89.9577 -5.722046E-06 80.70872
v 89.9577 6.249994 80.70872
v 89.9577 6.249998 90.33792
v 89.95769 -1.001358E-05 71.07953
v 89.95769 6.24999 71.07953
v 89.95769 12.49999 71.07953
v 89.9577 12.49999 80.70872
v 89.9577 12.5 90.33792
v -12.45108 6.249996 35.53979
v -12.45108 12.5 35.53978
v -12.45108 -4.090161E-06 35.53979
v -12.45108 -8.461582E-06 71.07957
v -12.45108 6.249991 71.07957
v -12.45108 12.49999 71.07957
v -12.45107 6.249996 80.70876
v -12.45107 12.5 80.70876
v -12.45107 -3.992373E-06 80.70877
v -6.225538 -4.230791E-06 35.53979
v -6.225534 -8.602212E-06 71.07957
v -6.225529 -4.181897E-06 80.70876
v 1.378457E-05 -4.371421E-06 80.70876
v 89.93209 -1.554659E-06 90.33792
v 89.93208 -5.846193E-06 80.70872
v 89.94489 -5.784119E-06 80.70872
v 89.9449 -1.492585E-06 90.33792
v 89.93208 -1.013773E-05 71.07953
v 89.94489 -1.007565E-05 71.07953
v 89.93208 6.24999 71.07953
v 89.94489 6.24999 71.07953
v 89.93208 12.49999 71.07953
v 89.94489 12.49999 71.07953
v 89.93209 12.5 90.33792
v 89.93209 6.249998 90.33792
v 89.9449 6.249998 90.33792
v 89.9449 12.5 90.33792
v 89.93208 12.49999 80.70872
v 89.94489 12.49999 80.70872
v 37.39283 -9.706728E-06 71.07956
v 37.39283 -5.295893E-06 80.70876
v 74.78564 -1.067061E-05 71.07955
v 74.78564 -6.220365E-06 80.70875
v 74.78565 -1.770117E-06 90.33794
v 37.39283 -8.850583E-07 90.33795
v 82.35886 -1.040417E-05 71.07954
v 82.35886 -6.033279E-06 80.70874
v 82.35887 -1.662388E-06 90.33794
v 74.78564 12.49999 71.07955
v 74.78564 6.24999 71.07955
v 37.39283 6.24999 71.07956
v 37.39283 12.49999 71.07956
v 89.93193 12.49999 -25.12311
v 89.93193 6.24999 -25.12311
v 82.35871 6.24999 -25.1231
v 82.35872 12.49999 -25.1231
v 89.93193 -1.001358E-05 -25.12311
v 82.35872 -1.0252E-05 -25.1231
v 74.7855 -1.049042E-05 -25.12309
v 74.7855 6.24999 -25.12309
v 74.7855 12.49999 -25.12309
v 37.39284 6.249999 90.33795
v 37.39284 12.5 90.33795
v 74.78566 6.249998 90.33794
v 74.78566 12.5 90.33794
v 82.35888 6.249998 90.33793
v 82.35887 12.5 90.33794
v 89.93204 -8.106837E-06 29.38824
v 89.93204 6.249991 29.38824
v 89.93201 -6.075947E-06 -12.30305
v 89.93201 6.249994 -12.30305
v 89.93201 12.49999 -12.30305
v 89.93204 12.49999 29.38824
v 74.78557 -6.552786E-06 -12.30303
v 82.35879 -6.314366E-06 -12.30304
v 82.35883 -8.359269E-06 29.38825
v 74.78561 -8.6117E-06 29.38826
v 82.35875 -8.283183E-06 -18.71307
v 74.78554 -8.521602E-06 -18.71306
v 89.93197 -8.044763E-06 -18.71308
v 74.78561 12.49999 29.38826
v 74.78561 6.249992 29.38826
v 74.78557 12.49999 -12.30303
v 74.78557 6.249994 -12.30303
v 74.78554 12.49999 -18.71306
v 74.78554 6.249992 -18.71306
v 149.9405 -1.0252E-05 -25.12322
v 149.9405 -8.313917E-06 -18.71319
v 209.949 -1.049042E-05 -25.12332
v 209.9491 -8.583069E-06 -18.71329
v 209.9491 -6.67572E-06 -12.30326
v 149.9406 -6.375833E-06 -12.30315
v 217.5437 -1.07351E-05 -25.12343
v 217.5438 -8.873639E-06 -18.71339
v 225.1384 -1.097978E-05 -25.12353
v 225.1385 -9.16421E-06 -18.7135
v 225.1385 -7.34864E-06 -12.30347
v 217.5438 -7.012181E-06 -12.30336
v 225.1384 -1.096725E-05 298.7573
v 217.5437 -1.072884E-05 298.7574
v 217.5437 6.24999 298.7574
v 225.1384 6.24999 298.7573
v 209.949 -1.049042E-05 298.7575
v 209.949 6.24999 298.7575
v 209.949 12.49999 298.7575
v 217.5437 12.49999 298.7574
v 225.1384 12.49999 298.7573
v 149.9405 6.24999 -25.12321
v 209.949 6.24999 -25.12332
v 149.9405 12.49999 -25.12322
v 209.949 12.49999 -25.12332
v 209.949 -1.049042E-05 1.630869
v 217.5437 -1.073197E-05 1.630764
v 209.949 -1.049042E-05 28.38506
v 217.5437 -1.072884E-05 28.38495
v 225.1384 -1.096725E-05 28.38485
v 225.1384 -1.097352E-05 1.630658
v 209.949 -1.049042E-05 47.59502
v 217.5437 -1.072884E-05 47.59492
v 209.949 -1.049042E-05 66.80499
v 217.5437 -1.072884E-05 66.80489
v 225.1384 -1.096725E-05 66.80478
v 225.1384 -1.096725E-05 47.59481
v 225.1384 6.24999 28.38485
v 225.1384 6.24999 1.630658
v 225.1384 12.49999 28.38485
v 225.1384 12.49999 1.630658
v 225.1384 12.49999 -25.12353
v 225.1384 6.249989 -25.12353
v 400.3748 -1.096725E-05 66.80478
v 400.3748 6.24999 66.80478
v 400.3748 6.24999 47.59481
v 400.3748 -1.096725E-05 47.59481
v 400.3748 12.49999 66.80478
v 400.3748 12.49999 47.59481
v 400.3748 12.49999 28.38485
v 400.3748 6.24999 28.38485
v 400.3748 -1.096725E-05 28.38485
v 209.949 6.24999 1.630869
v 209.949 6.24999 28.38506
v 209.949 12.49999 1.630869
v 209.949 12.49999 28.38506
v 132.9665 -1.049042E-05 66.80499
v 132.9665 -1.049042E-05 47.59502
v 132.9665 6.249991 47.59502
v 132.9665 6.249993 66.80499
v 132.9665 -1.049042E-05 28.38506
v 132.9665 6.24999 28.38506
v 132.9665 12.49999 28.38506
v 132.9665 12.49999 47.59502
v 132.9665 12.5 66.80499
v 217.5437 12.49999 -25.12343
v 217.5437 12.49999 1.630764
v 217.5437 12.49999 28.38495
v 217.5437 12.49999 47.59492
v 209.949 12.49999 47.59502
v 225.1384 12.49999 47.59481
v 225.1384 12.49999 66.80478
v 217.5437 12.49999 66.80489
v 209.949 12.49999 66.80499
v 262.1164 6.24999 298.7573
v 262.1164 -1.096725E-05 298.7573
v 262.1164 12.49999 298.7573
v 299.0944 12.49999 298.7573
v 299.0944 6.24999 298.7573
v 299.0944 -1.096725E-05 298.7573
v 262.1164 12.49999 47.59481
v 262.1164 12.49999 66.80478
v 262.1164 12.49999 28.38485
v 299.0944 12.49999 28.38485
v 299.0944 12.49999 47.59481
v 299.0944 12.49999 66.80478
v 262.1164 6.24999 28.38485
v 262.1164 -1.096725E-05 28.38485
v 299.0944 -1.096725E-05 28.38485
v 299.0944 6.24999 28.38485
v 262.1164 -1.096725E-05 47.59481
v 262.1164 -1.096725E-05 66.80478
v 299.0944 -1.096725E-05 66.80478
v 299.0944 -1.096725E-05 47.59481
v 349.7346 6.24999 298.7573
v 349.7346 -1.096725E-05 298.7573
v 349.7346 12.49999 298.7573
v 400.3748 12.49999 298.7573
v 400.3748 6.24999 298.7573
v 400.3748 -1.096725E-05 298.7573
v 349.7346 12.49999 47.59481
v 349.7346 12.49999 66.80478
v 349.7346 12.49999 28.38485
v 349.7346 6.24999 28.38485
v 349.7346 -1.096725E-05 28.38485
v 349.7346 -1.096725E-05 47.59481
v 349.7346 -1.096725E-05 66.80478
v 132.9665 6.249993 83.00278
v 132.9665 -1.049042E-05 83.00278
v 132.9665 12.5 83.00278
v 132.9665 12.5 99.20058
v 132.9665 6.249993 99.20058
v 132.9665 -1.049042E-05 99.20058
v 262.1164 -1.096725E-05 83.00257
v 299.0944 -1.096725E-05 83.00257
v 225.1384 -1.096725E-05 83.00257
v 225.1384 -1.096725E-05 99.20036
v 262.1164 -1.096725E-05 99.20036
v 299.0944 -1.096725E-05 99.20036
v 262.1164 12.49999 83.00257
v 225.1384 12.49999 83.00257
v 299.0944 12.49999 83.00257
v 299.0944 12.49999 99.20036
v 262.1164 12.49999 99.20036
v 225.1384 12.49999 99.20036
v 349.7346 -1.096725E-05 83.00257
v 400.3748 -1.096725E-05 83.00257
v 349.7346 -1.096725E-05 99.20036
v 400.3748 -1.096725E-05 99.20036
v 217.5437 -1.072884E-05 83.00268
v 209.949 -1.049042E-05 83.00278
v 209.949 -1.049042E-05 99.20058
v 217.5437 -1.072884E-05 99.20047
v 140.5612 12.5 66.80489
v 140.5612 12.5 83.00268
v 148.1559 12.5 66.80478
v 148.1559 12.5 83.00257
v 148.1559 12.5 99.20036
v 140.5612 12.5 99.20047
v 349.7346 12.49999 83.00257
v 400.3748 12.49999 83.00257
v 400.3748 12.49999 99.20036
v 349.7346 12.49999 99.20036
v 400.3748 6.24999 83.00257
v 400.3748 6.24999 99.20036
v 132.9665 6.249991 147.7809
v 132.9665 -1.049042E-05 147.7809
v 132.9665 12.49999 147.7809
v 132.9665 12.49999 196.3612
v 132.9665 6.24999 196.3612
v 132.9665 -1.049042E-05 196.3612
v 262.1164 -1.096725E-05 147.7807
v 299.0944 -1.096725E-05 147.7807
v 225.1384 -1.096725E-05 147.7807
v 225.1384 -1.096725E-05 196.361
v 262.1164 -1.096725E-05 196.361
v 299.0944 -1.096725E-05 196.361
v 262.1164 12.49999 147.7807
v 225.1384 12.49999 147.7807
v 299.0944 12.49999 147.7807
v 299.0944 12.49999 196.361
v 262.1164 12.49999 196.361
v 225.1384 12.49999 196.361
v 349.7346 -1.096725E-05 147.7807
v 400.3748 -1.096725E-05 147.7807
v 349.7346 -1.096725E-05 196.361
v 400.3748 -1.096725E-05 196.361
v 217.5437 -1.072884E-05 147.7808
v 209.949 -1.049042E-05 147.7809
v 209.949 -1.049042E-05 196.3612
v 217.5437 -1.072884E-05 196.3611
v 209.949 12.49999 99.20058
v 217.5437 12.49999 99.20047
v 217.5437 12.49999 147.7808
v 209.949 12.49999 147.7809
v 217.5437 12.49999 196.3611
v 209.949 12.49999 196.3612
v 349.7346 12.49999 147.7807
v 400.3748 12.49999 147.7807
v 400.3748 12.49999 196.361
v 349.7346 12.49999 196.361
v 400.3748 6.24999 147.7807
v 400.3748 6.24999 196.361
v 132.9665 6.24999 247.5593
v 132.9665 -1.049042E-05 247.5593
v 132.9665 12.49999 247.5593
v 132.9665 12.49999 298.7575
v 132.9665 6.24999 298.7575
v 132.9665 -1.049042E-05 298.7575
v 262.1164 -1.096725E-05 247.5591
v 299.0944 -1.096725E-05 247.5591
v 225.1384 -1.096725E-05 247.5591
v 262.1164 12.49999 247.5591
v 225.1384 12.49999 247.5591
v 299.0944 12.49999 247.5591
v 349.7346 -1.096725E-05 247.5591
v 400.3748 -1.096725E-05 247.5591
v 217.5437 -1.072884E-05 247.5592
v 209.949 -1.049042E-05 247.5593
v 217.5437 12.49999 247.5592
v 209.949 12.49999 247.5593
v 349.7346 12.49999 247.5591
v 400.3748 12.49999 247.5591
v 400.3748 6.24999 247.5591
v 171.4577 12.49999 47.59502
v 171.4577 12.49999 28.38506
v 171.4577 12.49999 66.80499
v 171.4577 -1.049042E-05 247.5594
v 171.4577 -1.049042E-05 298.7575
v 171.4577 -1.049042E-05 196.3612
v 171.4577 12.49999 247.5593
v 171.4577 12.49999 196.3612
v 171.4577 12.49999 298.7575
v 171.4577 6.24999 298.7575
v 171.4577 -1.049042E-05 47.59502
v 171.4577 -1.049042E-05 66.80499
v 171.4577 -1.049042E-05 28.38506
v 171.4577 -1.049042E-05 147.7809
v 171.4577 -1.049042E-05 99.20058
v 171.4577 12.49999 147.7809
v 171.4577 12.49999 99.20058
v 171.4577 -1.049042E-05 83.00278
v 186.6472 12.5 83.00257
v 186.6472 12.5 66.80478
v 186.6472 12.5 99.20036
v 171.4577 6.24999 28.38506
v 179.0525 12.49999 66.80489
v 179.0525 12.49999 99.20047

vt -4.649162E-05 100
vt 251.1249 100
vt 251.1249 50
vt -4.649162E-05 50
vt 502.2499 100
vt 502.2499 50
vt 502.2499 -1.192093E-06
vt 251.1249 -1.192093E-06
vt -4.649162E-05 -1.192093E-06
vt -502.25 100
vt -251.125 100
vt -251.125 50
vt -502.25 50
vt -251.125 -5.960464E-07
vt -502.25 -1.192093E-06
vt 49.80419 50
vt 49.80419 1.907349E-06
vt 49.80419 100
vt 99.60854 100
vt 99.60854 50
vt 99.60854 3.814697E-06
vt 301.3044 50
vt 301.3044 5.289929E-07
vt 301.3044 100
vt 503.0001 100
vt 503.0001 50
vt 503.0001 -1.192095E-06
vt -99.60861 1.087778E-06
vt -301.3043 -5.215725E-08
vt -301.3043 50
vt -99.60861 50
vt -503 -1.192093E-06
vt -503 50
vt -503 100
vt -301.3043 100
vt -99.60861 100
vt -49.80428 -5.215725E-08
vt -49.80428 50
vt -49.80428 100
vt 99.60871 -502.25
vt 49.80438 -502.25
vt 49.80436 -251.125
vt 99.6087 -251.125
vt 4.768372E-05 -502.25
vt 2.384186E-05 -251.125
vt 503.0001 -502.2499
vt 301.3044 -502.2499
vt 301.3044 -251.1249
vt 503.0001 -251.1249
vt 568.6365 -6.994274E-05
vt 284.3183 -3.497137E-05
vt 284.3183 49.99997
vt 568.6365 49.99993
vt 284.3183 99.99997
vt 568.6365 99.99993
vt 722.7039 -1.144409E-05
vt 645.6703 -4.577637E-05
vt 645.6703 49.99995
vt 722.7039 49.99998
vt 645.6703 99.99995
vt 722.7039 99.99998
vt -284.3183 49.99997
vt -284.3182 99.99997
vt -284.3183 -3.462119E-05
vt -568.6365 -6.959256E-05
vt -568.6365 49.99993
vt -568.6365 99.99993
vt -645.67 49.99997
vt -645.67 99.99997
vt -645.6701 -3.383888E-05
vt -722.7036 1.914795E-06
vt -722.7036 50
vt -722.7036 100
vt 49.80431 284.3183
vt 99.60864 284.3183
vt -3.588999E-05 284.3183
vt -7.177997E-05 568.6365
vt 49.80427 568.6366
vt 99.60861 568.6366
vt 99.60854 722.7037
vt 99.60857 645.6702
vt 49.80423 645.6701
vt 49.80419 722.7037
vt -0.0001102766 645.6701
vt -0.0001487732 722.7037
vt -719.4567 722.7034
vt -719.4567 645.6698
vt -719.5591 645.6698
vt -719.5592 722.7034
vt -719.4566 568.6362
vt -719.5591 568.6362
vt -719.6615 568.6362
vt -719.6616 645.6698
vt -719.6616 722.7034
vt 719.4566 -8.110182E-05
vt 719.4566 49.99992
vt 719.5591 49.99992
vt 719.5591 -8.060523E-05
vt 719.4566 99.99992
vt 719.5591 99.99992
vt 719.6615 99.99992
vt 719.6615 49.99992
vt 719.6615 -8.010864E-05
vt -719.4567 99.99998
vt -719.4567 49.99998
vt -719.5592 49.99998
vt -719.5592 99.99998
vt -719.4567 -1.243727E-05
vt -719.5592 -1.194068E-05
vt -719.6616 -1.144409E-05
vt -719.6616 49.99998
vt -719.6616 99.99998
vt 719.4566 568.6363
vt 719.4567 645.6699
vt 719.5591 645.6699
vt 719.5591 568.6363
vt 719.4567 722.7034
vt 719.5592 722.7034
vt 719.6616 722.7034
vt 719.6616 645.6699
vt 719.6615 568.6363
vt -299.1426 568.6365
vt -299.1426 645.67
vt -598.2852 568.6364
vt -598.2852 645.67
vt -598.2852 722.7036
vt -299.1427 722.7036
vt -658.8708 568.6364
vt -658.8709 645.6699
vt -658.871 722.7035
vt 598.285 99.99992
vt 598.285 49.99992
vt 299.1425 49.99992
vt 299.1425 99.99992
vt 598.285 -8.53649E-05
vt 299.1425 -7.765382E-05
vt -4.311157E-05 49.99993
vt -4.198211E-05 99.99993
vt 719.4557 99.99992
vt 719.4557 49.99992
vt 658.87 49.99992
vt 658.8701 99.99992
vt 719.4557 -8.010855E-05
vt 658.8701 -8.20159E-05
vt 598.2843 -8.392325E-05
vt 598.2843 49.99992
vt 598.2843 99.99992
vt -299.1421 49.99999
vt -299.1421 99.99999
vt -299.1421 -7.080333E-06
vt -598.2846 -1.41608E-05
vt -598.2847 49.99998
vt -598.2847 99.99998
vt -658.8704 49.99998
vt -658.8704 99.99998
vt -658.8704 -1.329897E-05
vt -719.4561 -1.243714E-05
vt -719.4561 49.99998
vt -719.4561 99.99998
vt 235.1065 -6.485466E-05
vt 235.1065 49.99993
vt -98.42381 -4.860753E-05
vt -98.42381 49.99995
vt -98.42383 99.99995
vt 235.1065 99.99993
vt -598.2845 -98.42422
vt -658.8703 -98.42431
vt -658.8706 235.106
vt -598.2849 235.1061
vt -719.4561 -98.4244
vt -719.4563 235.1059
vt -598.284 -200.9847
vt -658.8698 -200.9848
vt -658.87 -149.7046
vt -598.2843 -149.7045
vt -719.4554 -200.9849
vt -719.4557 -149.7047
vt -568.6383 99.99992
vt -235.108 99.99994
vt -235.108 49.99994
vt -568.6383 49.99992
vt 98.42236 99.99995
vt 98.42235 49.99995
vt 98.42234 -5.242207E-05
vt -235.108 -6.889338E-05
vt -568.6383 -8.536469E-05
vt 149.7026 99.99994
vt 149.7026 49.99994
vt 200.9828 99.99992
vt 200.9828 49.99992
vt 200.9828 -8.392312E-05
vt 149.7026 -6.817259E-05
vt -1199.524 -200.9857
vt -1199.524 -149.7055
vt -1679.592 -200.9866
vt -1679.593 -149.7063
vt -1679.593 -98.42607
vt -1199.524 -98.42523
vt -1740.35 -200.9874
vt -1740.35 -149.7072
vt -1801.107 -200.9883
vt -1801.108 -149.708
vt -1801.108 -98.42775
vt -1740.35 -98.42691
vt 1801.074 -8.773804E-05
vt 1740.316 -8.583069E-05
vt 1740.316 49.99992
vt 1801.074 49.99992
vt 1679.559 -8.392334E-05
vt 1679.559 49.99992
vt 1679.559 99.99992
vt 1740.316 99.99992
vt 1801.074 99.99992
vt 1679.593 -8.392334E-05
vt 1199.524 -8.201599E-05
vt 1199.524 49.99992
vt 1679.593 49.99992
vt 1199.524 99.99992
vt 1679.593 99.99992
vt 1679.592 -200.9866
vt 1679.592 13.04695
vt 1740.35 13.04611
vt 1740.35 -200.9874
vt 1679.592 227.0805
vt 1740.35 227.0796
vt 1801.107 227.0788
vt 1801.107 13.04527
vt 1801.107 -200.9883
vt 1679.592 380.7602
vt 1740.35 380.7593
vt 1679.592 534.4399
vt 1740.35 534.4391
vt 1801.107 534.4382
vt 1801.107 380.7585
vt -227.0788 -8.773804E-05
vt -227.0788 49.99992
vt -13.04527 49.99992
vt -13.04527 -8.778813E-05
vt -227.0788 99.99992
vt -13.04527 99.99992
vt 200.9883 99.99992
vt 200.9883 49.99991
vt 200.9883 -8.783823E-05
vt -534.4382 -8.773804E-05
vt -534.4382 49.99992
vt -380.7585 49.99992
vt -380.7585 -8.773804E-05
vt -534.4382 99.99992
vt -380.7585 99.99992
vt 227.0805 -8.392334E-05
vt 13.04695 -8.392334E-05
vt 13.04695 49.99992
vt 227.0805 49.99992
vt -200.9866 -8.392334E-05
vt -200.9866 49.99992
vt -200.9866 99.99992
vt 13.04695 99.99992
vt 227.0805 99.99992
vt 534.4399 -8.392334E-05
vt 380.7602 -8.392334E-05
vt 380.7602 49.99993
vt 534.4399 49.99994
vt 380.7602 99.99994
vt 534.4399 99.99997
vt -1740.35 13.04611
vt -1679.592 13.04695
vt -1801.107 13.04527
vt -1801.107 227.0788
vt -1740.35 227.0796
vt -1679.592 227.0805
vt -1740.35 380.7593
vt -1679.592 380.7602
vt -1801.107 380.7585
vt -1801.107 534.4382
vt -1740.35 534.4391
vt -1679.592 534.4399
vt 1801.107 -8.773804E-05
vt 1801.107 49.99992
vt 2096.931 49.99992
vt 2096.931 -8.773804E-05
vt 1801.107 99.99992
vt 2096.931 99.99992
vt 2392.755 99.99992
vt 2392.755 49.99992
vt 2392.755 -8.773804E-05
vt -2096.931 380.7585
vt -2096.931 534.4382
vt -2096.931 227.0788
vt -2392.755 227.0788
vt -2392.755 380.7585
vt -2392.755 534.4382
vt -1801.107 99.99992
vt -1801.107 49.99992
vt -2096.931 49.99992
vt -2096.931 99.99992
vt -1801.107 -8.773804E-05
vt -2096.931 -8.773804E-05
vt -2392.755 -8.773804E-05
vt -2392.755 49.99992
vt -2392.755 99.99992
vt 2096.931 380.7585
vt 2096.931 227.0788
vt 2096.931 534.4382
vt 2392.755 534.4382
vt 2392.755 380.7585
vt 2392.755 227.0788
vt 2797.877 49.99992
vt 2797.877 -8.773804E-05
vt 2797.877 99.99992
vt 3202.999 99.99992
vt 3202.999 49.99992
vt 3202.999 -8.773804E-05
vt -2797.877 380.7585
vt -2797.877 534.4382
vt -2797.877 227.0788
vt -3202.999 227.0788
vt -3202.999 380.7585
vt -3202.999 534.4382
vt -2797.877 49.99992
vt -2797.877 99.99992
vt -2797.877 -8.773804E-05
vt -3202.999 -8.773804E-05
vt -3202.999 49.99992
vt -3202.999 99.99992
vt 2797.877 380.7585
vt 2797.877 227.0788
vt 2797.877 534.4382
vt 3202.999 534.4382
vt 3202.999 380.7585
vt 3202.999 227.0788
vt 664.0223 49.99994
vt 664.0223 -8.392334E-05
vt 664.0223 99.99997
vt 793.6046 99.99997
vt 793.6046 49.99994
vt 793.6046 -8.392334E-05
vt 2096.931 664.0206
vt 2392.755 664.0206
vt 1801.107 664.0206
vt 1801.107 793.6029
vt 2096.931 793.6029
vt 2392.755 793.6029
vt -2096.931 664.0206
vt -1801.107 664.0206
vt -2392.755 664.0206
vt -2392.755 793.6029
vt -2096.931 793.6029
vt -1801.107 793.6029
vt 2797.877 664.0206
vt 3202.999 664.0206
vt 2797.877 793.6029
vt 3202.999 793.6029
vt 1740.35 664.0214
vt 1679.592 664.0223
vt 1679.592 793.6046
vt 1740.35 793.6038
vt -1063.732 534.4399
vt -1124.489 534.4391
vt -1124.489 664.0214
vt -1063.732 664.0223
vt -1185.247 534.4382
vt -1185.247 664.0206
vt -1185.247 793.6029
vt -1124.489 793.6038
vt -1063.732 793.6046
vt -2797.877 664.0206
vt -3202.999 664.0206
vt -3202.999 793.6029
vt -2797.877 793.6029
vt -664.0206 49.99992
vt -664.0206 99.99992
vt -664.0206 -8.773804E-05
vt -793.6029 -8.773804E-05
vt -793.6029 49.99992
vt -793.6029 99.99992
vt 1182.247 49.99993
vt 1182.247 -8.392334E-05
vt 1182.247 99.99994
vt 1570.889 99.99992
vt 1570.889 49.99992
vt 1570.889 -8.392334E-05
vt 2096.931 1182.245
vt 2392.755 1182.245
vt 1801.107 1182.245
vt 1801.107 1570.888
vt 2096.931 1570.888
vt 2392.755 1570.888
vt -2096.931 1182.245
vt -1801.107 1182.245
vt -2392.755 1182.245
vt -2392.755 1570.888
vt -2096.931 1570.888
vt -1801.107 1570.888
vt 2797.877 1182.245
vt 3202.999 1182.245
vt 2797.877 1570.888
vt 3202.999 1570.888
vt 1740.35 1182.246
vt 1679.592 1182.247
vt 1679.592 1570.889
vt 1740.35 1570.889
vt -1679.592 793.6046
vt -1740.35 793.6038
vt -1740.35 1182.246
vt -1679.592 1182.247
vt -1740.35 1570.889
vt -1679.592 1570.889
vt -2797.877 1182.245
vt -3202.999 1182.245
vt -3202.999 1570.888
vt -2797.877 1570.888
vt -1182.245 49.99992
vt -1182.245 99.99992
vt -1182.245 -8.773804E-05
vt -1570.888 -8.773804E-05
vt -1570.888 49.99992
vt -1570.888 99.99992
vt 1980.475 49.99992
vt 1980.475 -8.392334E-05
vt 1980.475 99.99992
vt 2390.06 99.99992
vt 2390.06 49.99992
vt 2390.06 -8.392334E-05
vt 2096.931 1980.473
vt 2392.755 1980.473
vt 1801.107 1980.473
vt 1801.107 2390.058
vt 2096.931 2390.058
vt 2392.755 2390.058
vt -2096.931 1980.473
vt -1801.107 1980.473
vt -2392.755 1980.473
vt -2392.755 2390.058
vt -2096.931 2390.058
vt -1801.107 2390.058
vt 2797.877 1980.473
vt 3202.999 1980.473
vt 2797.877 2390.058
vt 3202.999 2390.058
vt 1740.35 1980.474
vt 1679.592 1980.475
vt 1679.592 2390.06
vt 1740.35 2390.059
vt -1740.35 1980.474
vt -1679.592 1980.475
vt -1740.35 2390.059
vt -1679.592 2390.06
vt -2797.877 1980.473
vt -3202.999 1980.473
vt -3202.999 2390.058
vt -2797.877 2390.058
vt -1980.473 49.99992
vt -1980.473 99.99992
vt -1980.473 -8.773804E-05
vt -2390.058 -8.773804E-05
vt -2390.058 49.99992
vt -2390.058 99.99992
vt -1371.662 380.7602
vt -1371.662 227.0805
vt -1371.662 534.4399
vt -1063.732 380.7602
vt -1063.732 227.0805
vt 1371.662 1980.475
vt 1371.662 2390.06
vt 1371.662 1570.889
vt 1063.732 1570.889
vt 1063.732 1980.475
vt 1063.732 2390.06
vt -1371.662 1980.475
vt -1371.662 1570.889
vt -1371.662 2390.06
vt -1063.732 2390.06
vt -1063.732 1980.475
vt -1063.732 1570.889
vt 1679.592 99.99992
vt 1679.592 49.99992
vt 1371.662 49.99992
vt 1371.662 99.99992
vt 1679.592 -8.392334E-05
vt 1371.662 -8.392334E-05
vt 1063.732 -8.392334E-05
vt 1063.732 49.99992
vt 1063.732 99.99992
vt 1371.662 380.7602
vt 1371.662 534.4399
vt 1371.662 227.0805
vt 1063.732 227.0804
vt 1063.732 380.7602
vt 1063.732 534.4399
vt 1371.662 1182.247
vt 1371.662 793.6046
vt 1063.732 793.6046
vt 1063.732 1182.247
vt -1371.662 1182.247
vt -1371.662 793.6046
vt -1063.732 1182.247
vt 1371.662 664.0223
vt 1063.732 664.0223
vt -1493.177 664.0206
vt -1493.177 534.4382
vt -1493.177 793.6029
vt -1679.592 -8.392335E-05
vt -1679.592 49.99992
vt -1371.662 49.99992
vt -1371.662 -8.392335E-05
vt -1679.592 99.99992
vt -1371.662 99.99992
vt -1063.732 99.99992
vt -1063.732 49.99992
vt -1063.732 -8.392335E-05
vt 1679.592 532.4376
vt 1740.35 532.4367
vt 1432.42 532.4367
vt 1371.662 532.4376
vt 1801.107 532.4359
vt 1493.177 532.4359
vt 1185.247 532.4359
vt 1124.489 532.4367
vt 1063.732 532.4376
vt -1801.107 790.2711
vt -1740.35 790.272
vt -1432.42 790.272
vt -1493.177 790.2711
vt -1679.592 790.2728
vt -1371.662 790.2728
vt -1063.732 790.2728
vt -1124.489 790.272
vt -1185.247 790.2711

vn 0.125 0 0
vn -0.125 0 1.186752E-08
vn 0 0 -0.125
vn 1.891313E-08 0 0.125
vn 2.85169E-09 0.125 -2.911281E-10
vn 0 -0.125 6.189992E-08
vn -1.238664E-08 -0.1249808 -0.00199651
vn -1.548464E-08 -0.1249951 -0.001101015
vn -9.288651E-09 -0.1249665 -0.002892004
vn -1.857871E-08 -0.124973 -0.00243669
vn -1.547973E-08 -0.1249556 -0.003332017
vn -1.857477E-08 -0.1249495 -0.003551977
vn -1.547542E-08 -0.1249209 -0.004446458
vn 2.167768E-08 0.1249905 0.001541364
vn 1.857871E-08 0.124973 0.00243669
vn 1.547973E-08 0.1249556 0.003332017
vn 1.548464E-08 0.1249951 0.001101015
vn 9.288651E-09 0.1249665 0.002892004
vn 1.393041E-08 0.124942 0.00377933
vn 1.23811E-08 0.1249285 0.004226642

usemtl Blue
f 4/4/1 3/3/1 2/2/1 1/1/1
f 6/6/1 5/5/1 2/2/1 3/3/1
f 7/7/1 6/6/1 3/3/1 8/8/1
f 8/8/1 3/3/1 4/4/1 9/9/1
f 11/11/2 10/10/2 13/13/2 12/12/2
f 14/1/2 11/11/2 12/12/2 15/4/2
f 15/4/2 12/12/2 17/14/2 16/9/2
f 12/12/2 13/13/2 18/15/2 17/14/2
f 19/9/3 22/17/3 21/16/3 20/4/3
f 21/16/3 24/18/3 23/1/3 20/4/3
f 26/20/3 25/19/3 24/18/3 21/16/3
f 22/17/3 27/21/3 26/20/3 21/16/3
f 31/23/3 30/22/3 29/20/3 28/21/3
f 30/22/3 33/24/3 32/19/3 29/20/3
f 4/26/3 1/25/3 33/24/3 30/22/3
f 9/27/3 4/26/3 30/22/3 31/23/3
f 37/31/4 36/30/4 35/29/4 34/28/4
f 36/30/4 6/33/4 7/32/4 35/29/4
f 38/35/4 5/34/4 6/33/4 36/30/4
f 39/36/4 38/35/4 36/30/4 37/31/4
f 13/4/4 41/38/4 40/37/4 18/9/4
f 41/38/4 37/31/4 34/28/4 40/37/4
f 42/39/4 39/36/4 37/31/4 41/38/4
f 10/1/4 42/39/4 41/38/4 13/4/4
f 49/52/2 48/51/2 47/50/2 50/53/2
f 15/4/2 16/9/2 48/51/2 49/52/2
f 14/1/2 15/4/2 49/52/2 51/54/2
f 51/54/2 49/52/2 50/53/2 52/55/2
f 56/59/2 55/58/2 54/57/2 53/56/2
f 55/58/2 58/53/2 57/50/2 54/57/2
f 60/60/2 59/55/2 58/53/2 55/58/2
f 61/61/2 60/60/2 55/58/2 56/59/2
f 63/63/1 62/62/1 29/4/1 32/1/1
f 62/62/1 64/64/1 28/9/1 29/4/1
f 66/66/1 65/65/1 64/64/1 62/62/1
f 67/67/1 66/66/1 62/62/1 63/63/1
f 69/69/1 68/68/1 66/66/1 67/67/1
f 70/70/1 65/65/1 66/66/1 68/68/1
f 26/72/1 27/71/1 70/70/1 68/68/1
f 68/68/1 69/69/1 25/73/1 26/72/1
f 75/86/5 78/89/5 77/88/5 76/87/5
f 77/88/5 80/91/5 79/90/5 76/87/5
f 54/93/5 57/92/5 80/91/5 77/88/5
f 78/89/5 53/94/5 54/93/5 77/88/5
f 82/97/4 81/96/4 79/95/4 80/98/4
f 84/100/4 83/99/4 81/96/4 82/97/4
f 59/101/4 84/100/4 82/97/4 58/102/4
f 58/102/4 82/97/4 80/98/4 57/103/4
f 86/105/3 85/104/3 88/107/3 87/106/3
f 75/108/3 86/105/3 87/106/3 78/109/3
f 78/109/3 87/106/3 56/111/3 53/110/3
f 87/106/3 88/107/3 61/112/3 56/111/3
f 83/113/6 84/116/6 90/115/6 89/114/6
f 85/117/6 89/114/6 90/115/6 88/118/6
f 88/118/6 90/115/6 60/120/6 61/119/6
f 90/115/6 84/116/6 59/121/6 60/120/6
f 103/134/4 102/133/4 101/132/4 100/131/4
f 91/136/4 93/135/4 101/132/4 102/133/4
f 50/137/4 47/9/4 91/136/4 102/133/4
f 103/134/4 52/138/4 50/137/4 102/133/4
f 106/141/4 105/140/4 104/139/4 107/142/4
f 106/141/4 109/144/4 108/143/4 105/140/4
f 106/141/4 111/146/4 110/145/4 109/144/4
f 107/142/4 112/147/4 111/146/4 106/141/4
f 114/149/3 113/148/3 20/4/3 23/1/3
f 19/9/3 20/4/3 113/148/3 96/150/3
f 115/152/3 95/151/3 96/150/3 113/148/3
f 116/153/3 115/152/3 113/148/3 114/149/3
f 117/154/3 115/152/3 116/153/3 118/155/3
f 117/154/3 99/156/3 95/151/3 115/152/3
f 86/158/3 75/157/3 99/156/3 117/154/3
f 85/159/3 86/158/3 117/154/3 118/155/3
f 120/161/2 119/160/2 79/50/2 81/53/2
f 120/161/2 122/163/2 121/162/2 119/160/2
f 123/164/2 122/163/2 120/161/2 124/165/2
f 124/165/2 120/161/2 81/53/2 83/55/2
f 100/178/1 101/181/1 133/180/1 132/179/1
f 132/179/1 133/180/1 135/183/1 134/182/1
f 133/180/1 128/185/1 125/184/1 135/183/1
f 101/181/1 93/186/1 128/185/1 133/180/1
f 135/183/1 137/188/1 136/187/1 134/182/1
f 111/190/1 112/189/1 136/187/1 137/188/1
f 110/191/1 111/190/1 137/188/1 130/192/1
f 125/184/1 130/192/1 137/188/1 135/183/1
f 153/208/4 152/207/4 151/206/4 150/205/4
f 152/207/4 155/210/4 154/209/4 151/206/4
f 157/212/4 156/211/4 155/210/4 152/207/4
f 158/213/4 157/212/4 152/207/4 153/208/4
f 160/217/4 159/216/4 138/215/4 140/214/4
f 159/216/4 105/140/4 108/143/4 138/215/4
f 161/218/4 104/139/4 105/140/4 159/216/4
f 162/219/4 161/218/4 159/216/4 160/217/4
f 144/223/6 164/222/6 163/221/6 140/220/6
f 164/222/6 166/225/6 165/224/6 163/221/6
f 168/227/6 167/226/6 166/225/6 164/222/6
f 146/228/6 168/227/6 164/222/6 144/223/6
f 166/225/6 170/230/6 169/229/6 165/224/6
f 170/230/6 172/232/6 171/231/6 169/229/6
f 174/234/6 173/233/6 172/232/6 170/230/6
f 167/226/6 174/234/6 170/230/6 166/225/6
f 168/238/1 176/237/1 175/236/1 167/235/1
f 176/237/1 178/240/1 177/239/1 175/236/1
f 180/242/1 179/241/1 178/240/1 176/237/1
f 146/243/1 180/242/1 176/237/1 168/238/1
f 184/247/1 183/246/1 182/245/1 181/244/1
f 183/246/1 186/249/1 185/248/1 182/245/1
f 188/236/1 187/239/1 186/249/1 183/246/1
f 189/235/1 188/236/1 183/246/1 184/247/1
f 191/253/2 190/252/2 163/251/2 165/250/2
f 190/252/2 160/255/2 140/254/2 163/251/2
f 192/257/2 162/256/2 160/255/2 190/252/2
f 193/258/2 192/257/2 190/252/2 191/253/2
f 197/262/2 196/261/2 195/260/2 194/259/2
f 196/261/2 199/253/2 198/250/2 195/260/2
f 201/263/2 200/258/2 199/253/2 196/261/2
f 202/264/2 201/263/2 196/261/2 197/262/2
f 212/279/4 153/278/4 150/277/4 213/280/4
f 214/282/4 158/281/4 153/278/4 212/279/4
f 215/283/4 214/282/4 212/279/4 216/284/4
f 216/284/4 212/279/4 213/280/4 217/285/4
f 175/293/3 177/292/3 220/295/3 224/294/3
f 167/296/3 175/293/3 224/294/3 225/297/3
f 225/297/3 224/294/3 227/299/3 226/298/3
f 224/294/3 220/295/3 221/300/3 227/299/3
f 225/302/6 228/301/6 174/234/6 167/226/6
f 174/234/6 228/301/6 229/303/6 173/233/6
f 228/301/6 231/305/6 230/304/6 229/303/6
f 226/306/6 231/305/6 228/301/6 225/302/6
f 232/307/4 216/284/4 217/285/4 233/308/4
f 234/309/4 215/283/4 216/284/4 232/307/4
f 235/310/4 234/309/4 232/307/4 236/311/4
f 236/311/4 232/307/4 233/308/4 237/312/4
f 227/299/3 221/300/3 240/320/3 241/319/3
f 242/321/3 226/298/3 227/299/3 241/319/3
f 189/322/3 242/321/3 241/319/3 188/323/3
f 241/319/3 240/320/3 187/324/3 188/323/3
f 226/306/6 242/326/6 243/325/6 231/305/6
f 243/325/6 244/327/6 230/304/6 231/305/6
f 184/329/6 181/328/6 244/327/6 243/325/6
f 242/326/6 189/330/6 184/329/6 243/325/6
f 245/331/2 197/262/2 194/259/2 246/332/2
f 247/333/2 202/264/2 197/262/2 245/331/2
f 248/334/2 247/333/2 245/331/2 249/335/2
f 249/335/2 245/331/2 246/332/2 250/336/2
f 230/304/6 252/338/6 251/337/6 229/303/6
f 229/303/6 251/337/6 253/339/6 173/233/6
f 251/337/6 255/341/6 254/340/6 253/339/6
f 252/338/6 256/342/6 255/341/6 251/337/6
f 181/328/6 264/350/6 263/349/6 244/327/6
f 244/327/6 263/349/6 252/338/6 230/304/6
f 263/349/6 265/351/6 256/342/6 252/338/6
f 264/350/6 266/352/6 265/351/6 263/349/6
f 173/233/6 253/339/6 267/353/6 172/232/6
f 172/232/6 267/353/6 268/354/6 171/231/6
f 267/353/6 270/356/6 269/355/6 268/354/6
f 253/339/6 254/340/6 270/356/6 267/353/6
f 182/245/1 185/248/1 278/371/1 281/370/1
f 181/244/1 182/245/1 281/370/1 264/372/1
f 264/372/1 281/370/1 282/374/1 266/373/1
f 281/370/1 278/371/1 279/375/1 282/374/1
f 249/335/2 250/336/2 284/377/2 283/376/2
f 248/334/2 249/335/2 283/376/2 285/378/2
f 285/378/2 283/376/2 287/380/2 286/379/2
f 283/376/2 284/377/2 288/381/2 287/380/2
f 256/342/6 290/383/6 289/382/6 255/341/6
f 255/341/6 289/382/6 291/384/6 254/340/6
f 289/382/6 293/386/6 292/385/6 291/384/6
f 290/383/6 294/387/6 293/386/6 289/382/6
f 266/352/6 302/395/6 301/394/6 265/351/6
f 265/351/6 301/394/6 290/383/6 256/342/6
f 301/394/6 303/396/6 294/387/6 290/383/6
f 302/395/6 304/397/6 303/396/6 301/394/6
f 254/340/6 291/384/6 305/398/6 270/356/6
f 270/356/6 305/398/6 306/399/6 269/355/6
f 305/398/6 308/401/6 307/400/6 306/399/6
f 291/384/6 292/385/6 308/401/6 305/398/6
f 282/374/1 279/375/1 316/413/1 319/412/1
f 266/373/1 282/374/1 319/412/1 302/414/1
f 304/415/1 302/414/1 319/412/1 320/416/1
f 319/412/1 316/413/1 317/417/1 320/416/1
f 321/418/2 287/380/2 288/381/2 322/419/2
f 323/420/2 286/379/2 287/380/2 321/418/2
f 324/421/2 323/420/2 321/418/2 325/422/2
f 325/422/2 321/418/2 322/419/2 326/423/2
f 294/387/6 328/425/6 327/424/6 293/386/6
f 329/426/6 292/385/6 293/386/6 327/424/6
f 329/426/6 327/424/6 213/428/6 150/427/6
f 328/425/6 217/429/6 213/428/6 327/424/6
f 304/397/6 334/437/6 333/436/6 303/396/6
f 328/425/6 294/387/6 303/396/6 333/436/6
f 328/425/6 333/436/6 233/438/6 217/429/6
f 334/437/6 237/439/6 233/438/6 333/436/6
f 292/385/6 329/426/6 335/440/6 308/401/6
f 308/401/6 335/440/6 336/441/6 307/400/6
f 335/440/6 151/443/6 154/442/6 336/441/6
f 329/426/6 150/427/6 151/443/6 335/440/6
f 341/452/1 320/416/1 317/417/1 340/453/1
f 304/415/1 320/416/1 341/452/1 334/454/1
f 236/456/1 237/455/1 334/454/1 341/452/1
f 235/457/1 236/456/1 341/452/1 340/453/1
f 345/463/6 336/441/6 154/442/6 346/464/6
f 307/400/6 336/441/6 345/463/6 347/465/6
f 322/467/6 288/466/6 347/465/6 345/463/6
f 326/468/6 322/467/6 345/463/6 346/464/6
f 350/478/4 351/477/4 155/476/4 156/475/4
f 351/477/4 346/480/4 154/479/4 155/476/4
f 325/482/4 326/481/4 346/480/4 351/477/4
f 350/478/4 324/483/4 325/482/4 351/477/4
f 352/484/6 169/229/6 171/231/6 353/485/6
f 165/224/6 169/229/6 352/484/6 354/486/6
f 195/488/6 198/487/6 354/486/6 352/484/6
f 194/489/6 195/488/6 352/484/6 353/485/6
f 355/490/6 306/399/6 307/400/6 347/465/6
f 269/355/6 306/399/6 355/490/6 356/491/6
f 284/493/6 250/492/6 356/491/6 355/490/6
f 288/466/6 284/493/6 355/490/6 347/465/6
f 359/497/6 268/354/6 269/355/6 356/491/6
f 171/231/6 268/354/6 359/497/6 353/485/6
f 246/498/6 194/489/6 353/485/6 359/497/6
f 250/492/6 246/498/6 359/497/6 356/491/6
f 191/503/3 165/502/3 354/505/3 363/504/3
f 193/506/3 191/503/3 363/504/3 343/507/3
f 199/509/3 200/508/3 343/507/3 363/504/3
f 354/505/3 198/510/3 199/509/3 363/504/3

usemtl Black
f 44/43/5 43/42/5 40/41/5 34/40/5
f 40/41/5 43/42/5 17/45/5 18/44/5
f 45/17/5 16/9/5 17/45/5 43/42/5
f 28/21/5 45/17/5 43/42/5 44/43/5
f 8/49/5 46/48/5 35/47/5 7/46/5
f 46/48/5 44/43/5 34/40/5 35/47/5
f 31/23/5 28/21/5 44/43/5 46/48/5
f 9/27/5 31/23/5 46/48/5 8/49/5
f 64/75/5 71/74/5 45/17/5 28/21/5
f 71/74/5 48/76/5 16/9/5 45/17/5
f 72/78/5 47/77/5 48/76/5 71/74/5
f 65/79/5 72/78/5 71/74/5 64/75/5
f 27/80/5 22/83/5 73/82/5 70/81/5
f 65/79/5 70/81/5 73/82/5 72/78/5
f 73/82/5 74/84/5 47/77/5 72/78/5
f 22/83/5 19/85/5 74/84/5 73/82/5
f 74/84/5 92/123/5 91/122/5 47/77/5
f 92/123/5 94/125/5 93/124/5 91/122/5
f 96/127/5 95/126/5 94/125/5 92/123/5
f 19/85/5 96/127/5 92/123/5 74/84/5
f 94/125/5 98/129/5 97/128/5 93/124/5
f 98/129/5 76/87/5 79/90/5 97/128/5
f 99/130/5 75/86/5 76/87/5 98/129/5
f 95/126/5 99/130/5 98/129/5 94/125/5
f 128/169/5 127/168/5 126/167/5 125/166/5
f 127/168/5 119/171/5 121/170/5 126/167/5
f 97/128/5 79/90/5 119/171/5 127/168/5
f 93/124/5 97/128/5 127/168/5 128/169/5
f 130/175/5 129/174/5 109/173/5 110/172/5
f 129/174/5 131/177/5 108/176/5 109/173/5
f 126/167/5 121/170/5 131/177/5 129/174/5
f 125/166/5 126/167/5 129/174/5 130/175/5
f 131/177/5 139/194/5 138/193/5 108/176/5
f 139/194/5 141/196/5 140/195/5 138/193/5
f 143/198/5 142/197/5 141/196/5 139/194/5
f 121/170/5 143/198/5 139/194/5 131/177/5
f 141/196/5 145/200/5 144/199/5 140/195/5
f 145/200/5 147/202/5 146/201/5 144/199/5
f 149/204/5 148/203/5 147/202/5 145/200/5
f 142/197/5 149/204/5 145/200/5 141/196/5
f 192/266/5 204/265/5 203/199/5 162/195/5
f 204/265/5 178/267/5 179/201/5 203/199/5
f 205/269/5 177/268/5 178/267/5 204/265/5
f 193/270/5 205/269/5 204/265/5 192/266/5
f 207/272/5 206/271/5 205/269/5 193/270/5
f 206/271/5 208/273/5 177/268/5 205/269/5
f 210/275/5 209/274/5 208/273/5 206/271/5
f 211/276/5 210/275/5 206/271/5 207/272/5
f 209/274/5 219/287/5 218/286/5 208/273/5
f 208/273/5 218/286/5 220/288/5 177/268/5
f 218/286/5 222/290/5 221/289/5 220/288/5
f 219/287/5 223/291/5 222/290/5 218/286/5
f 223/291/5 239/314/5 238/313/5 222/290/5
f 222/290/5 238/313/5 240/315/5 221/289/5
f 238/313/5 186/317/5 187/316/5 240/315/5
f 239/314/5 185/318/5 186/317/5 238/313/5
f 258/344/5 257/343/5 219/287/5 209/274/5
f 257/343/5 259/345/5 223/291/5 219/287/5
f 261/347/5 260/346/5 259/345/5 257/343/5
f 262/348/5 261/347/5 257/343/5 258/344/5
f 247/360/5 272/359/5 271/358/5 202/357/5
f 272/359/5 274/362/5 273/361/5 271/358/5
f 276/364/5 275/363/5 274/362/5 272/359/5
f 248/365/5 276/364/5 272/359/5 247/360/5
f 259/345/5 277/366/5 239/314/5 223/291/5
f 277/366/5 278/367/5 185/318/5 239/314/5
f 280/369/5 279/368/5 278/367/5 277/366/5
f 260/346/5 280/369/5 277/366/5 259/345/5
f 296/389/5 295/388/5 261/347/5 262/348/5
f 295/388/5 297/390/5 260/346/5 261/347/5
f 299/392/5 298/391/5 297/390/5 295/388/5
f 300/393/5 299/392/5 295/388/5 296/389/5
f 312/405/5 311/404/5 310/403/5 309/402/5
f 311/404/5 296/389/5 262/348/5 310/403/5
f 313/406/5 300/393/5 296/389/5 311/404/5
f 314/407/5 313/406/5 311/404/5 312/405/5
f 297/390/5 315/408/5 280/369/5 260/346/5
f 315/408/5 316/409/5 279/368/5 280/369/5
f 318/411/5 317/410/5 316/409/5 315/408/5
f 298/391/5 318/411/5 315/408/5 297/390/5
f 330/430/5 299/392/5 300/393/5 331/431/5
f 330/430/5 332/432/5 298/391/5 299/392/5
f 214/434/5 215/433/5 332/432/5 330/430/5
f 158/435/5 214/434/5 330/430/5 331/431/5
f 338/445/5 337/444/5 313/406/5 314/407/5
f 337/444/5 331/431/5 300/393/5 313/406/5
f 157/446/5 158/435/5 331/431/5 337/444/5
f 156/447/5 157/446/5 337/444/5 338/445/5
f 339/448/5 318/411/5 298/391/5 332/432/5
f 339/448/5 340/449/5 317/410/5 318/411/5
f 234/451/5 235/450/5 340/449/5 339/448/5
f 215/433/5 234/451/5 339/448/5 332/432/5
f 342/458/5 207/272/5 193/270/5 343/459/5
f 211/276/5 207/272/5 342/458/5 344/460/5
f 344/460/5 342/458/5 201/461/5 202/357/5
f 342/458/5 343/459/5 200/462/5 201/461/5
f 348/469/5 338/445/5 314/407/5 349/470/5
f 156/447/5 338/445/5 348/469/5 350/471/5
f 350/471/5 348/469/5 323/473/5 324/472/5
f 348/469/5 349/470/5 286/474/5 323/473/5
f 357/494/5 312/405/5 309/402/5 358/495/5
f 314/407/5 312/405/5 357/494/5 349/470/5
f 349/470/5 357/494/5 285/496/5 286/474/5
f 357/494/5 358/495/5 248/365/5 285/496/5
f 360/499/5 258/344/5 209/274/5 361/500/5
f 362/501/5 262/348/5 258/344/5 360/499/5
f 275/363/5 362/501/5 360/499/5 274/362/5
f 274/362/5 360/499/5 361/500/5 273/361/5
f 344/514/9 364/513/7 210/512/8 211/511/7
f 364/513/11 361/516/10 209/515/7 210/512/10
f 271/518/13 273/517/12 361/516/12 364/513/12
f 202/519/13 271/518/12 364/513/11 344/514/12
f 310/521/15 262/520/14 362/523/15 365/522/16
f 309/524/14 310/521/17 365/522/14 358/525/18
f 358/525/19 365/522/16 276/527/19 248/526/20
f 365/522/19 362/523/19 275/528/19 276/527/20

