# Blender v2.79 (sub 0) OBJ File: 'bottle.blend'
# www.blender.org
mtllib bottle.mtl
o Cola_Cube
v 1.553177 -7.211443 -1.570769
v 1.553177 -7.211443 1.570768
v -1.553177 -7.211443 1.570768
v -1.553176 -7.211443 -1.570769
v 1.675442 -5.211443 -1.694416
v 1.675440 -5.211443 1.694418
v -1.675441 -5.211443 1.694417
v -1.675441 -5.211443 -1.694417
v 1.770523 -6.211443 -1.790575
v 1.770522 -6.211443 1.790576
v -1.770523 -6.211443 1.790575
v -1.770522 -6.211443 -1.790576
v 1.675442 -0.818061 -1.694416
v 1.675440 -0.818061 1.694418
v -1.675441 -0.818061 1.694417
v -1.675441 -0.818061 -1.694417
v -1.484203 -4.271977 1.501013
v -1.484203 -4.271977 -1.501013
v 1.484204 -4.271977 -1.501013
v 1.484202 -4.271977 1.501014
v 1.675442 1.798687 -1.694416
v 1.675440 1.798687 1.694418
v -1.675441 1.798687 1.694417
v -1.675441 1.798687 -1.694417
v 1.080965 3.864540 -1.093207
v 1.080964 3.864540 1.093209
v -1.080965 3.864540 1.093208
v -1.080965 3.864540 -1.093208
v 0.717680 5.402453 -0.725808
v 0.717679 5.402453 0.725809
v -0.717680 5.402453 0.725808
v -0.717680 5.402453 -0.725808
v 0.717680 6.126235 -0.725808
v 0.717679 6.320610 0.725809
v -0.717680 6.320610 0.725808
v -0.717680 6.320610 -0.725808
v 0.823287 6.517754 -0.832611
v 0.823286 6.517754 0.832612
v -0.823287 6.517754 0.832611
v -0.823286 6.517754 -0.832611
v 0.823287 6.791816 -0.832611
v 0.823286 6.791816 0.832612
v -0.823287 6.791816 0.832611
v -0.823286 6.791816 -0.832611
vt 0.500787 0.625111
vt 0.407496 0.625111
vt 0.407496 0.425789
vt 0.500787 0.425789
vt 0.522441 0.204253
vt 0.611590 0.204253
vt 0.617334 0.425789
vt 0.516698 0.425789
vt 0.513842 0.079686
vt 0.510987 0.143891
vt 0.410351 0.143891
vt 0.407496 0.079686
vt 0.209094 0.079754
vt 0.203767 0.143931
vt 0.016021 0.143931
vt 0.010693 0.079754
vt 0.620189 0.079686
vt 0.617334 0.143891
vt 0.516698 0.143891
vt 0.513842 0.079686
vt 0.407496 0.361694
vt 0.395318 0.425834
vt 0.221272 0.425834
vt 0.209094 0.361695
vt 0.402168 0.297518
vt 0.214422 0.297518
vt 0.613662 0.015615
vt 0.520370 0.015615
vt 0.196917 0.015615
vt 0.022871 0.015615
vt 0.507315 0.015615
vt 0.414023 0.015615
vt 0.614078 0.641988
vt 1.001242 0.641988
vt 1.001242 0.995972
vt 0.614078 0.995972
vt 0.391453 0.237214
vt 0.225137 0.237214
vt 0.214422 0.015615
vt 0.402168 0.015615
vt 0.026736 0.204235
vt 0.193052 0.204235
vt 0.203767 0.425834
vt 0.016021 0.425834
vt 0.416094 0.204253
vt 0.505244 0.204253
vt 0.510987 0.425789
vt 0.410351 0.425789
vt 0.751320 0.256233
vt 0.596425 0.256233
vt 0.623904 0.170548
vt 0.723840 0.170548
vt 0.376052 0.641988
vt 0.619026 0.641988
vt 0.619026 0.995972
vt 0.376052 0.995972
vt 0.619026 0.641988
vt 0.376052 0.641988
vt 0.376052 0.995972
vt 0.619026 0.995972
vt 0.612595 0.641324
vt 0.997629 0.641324
vt 0.997629 1.004449
vt 0.612595 1.004449
vt 0.974512 0.364198
vt 0.920945 0.364198
vt 0.929946 0.303274
vt 0.965511 0.303274
vt 0.989242 0.445409
vt 0.906215 0.445409
vt 0.989242 0.249000
vt 0.906215 0.249000
vt 0.920945 0.167790
vt 0.974512 0.167790
vt 0.906215 0.256232
vt 0.751320 0.256232
vt 0.778800 0.170548
vt 0.878735 0.170548
vt 0.965511 0.106866
vt 0.929946 0.106866
vt 0.929946 0.069215
vt 0.965511 0.069215
vt 0.795592 0.106775
vt 0.861942 0.106775
vt 0.640697 0.106775
vt 0.707047 0.106775
vt 0.707047 0.068739
vt 0.640697 0.068739
vt 0.635816 0.059248
vt 0.711929 0.059248
vt 0.795592 0.068739
vt 0.861942 0.068739
vt 0.929946 0.265624
vt 0.965511 0.265624
vt 0.307124 0.681778
vt 0.295828 0.681778
vt 0.295828 0.679954
vt 0.307124 0.679954
vt 0.927329 0.255589
vt 0.968127 0.255589
vt 0.927329 0.059180
vt 0.968127 0.059180
vt 0.790711 0.059248
vt 0.866824 0.059248
vt 0.215508 0.736335
vt 0.215508 0.755221
vt 0.204213 0.755221
vt 0.204213 0.736335
vt 0.279077 0.681797
vt 0.258004 0.681797
vt 0.258004 0.679954
vt 0.279077 0.679954
vt 0.236192 0.681797
vt 0.215119 0.681797
vt 0.215119 0.679954
vt 0.236192 0.679954
vt 0.307124 0.736157
vt 0.295828 0.736157
vt 0.295828 0.734333
vt 0.307124 0.734333
vn 0.0000 -1.0000 0.0000
vn -0.9985 -0.0553 -0.0000
vn 0.9955 0.0947 0.0000
vn -0.0000 0.0957 0.9954
vn -0.9955 0.0947 -0.0000
vn 0.0000 -0.2147 -0.9767
vn 0.0000 0.0957 -0.9954
vn -0.9772 -0.2124 -0.0000
vn -0.0000 -0.2147 0.9767
vn 0.9772 -0.2124 0.0000
vn -0.0000 0.0000 1.0000
vn 0.0000 -0.0559 -0.9984
vn -0.0000 -0.0559 0.9984
vn 0.9985 -0.0553 0.0000
vn 0.9799 0.1995 0.0000
vn -0.0000 0.2016 0.9795
vn 0.0000 0.2016 -0.9795
vn -0.9799 0.1995 -0.0000
vn -0.0000 0.2794 0.9602
vn 1.0000 0.0000 0.0000
vn -1.0000 0.0000 -0.0000
vn 0.0000 0.0000 -1.0000
vn 0.9732 0.2299 0.0000
vn 0.9610 0.2765 0.0000
vn -0.9610 0.2765 -0.0000
vn 0.0000 0.2794 -0.9602
vn -0.9732 0.2299 -0.0000
vn 0.0000 0.2324 -0.9726
vn -0.0000 0.2324 0.9726
vn -0.0000 -0.4763 0.8793
vn 0.9410 -0.3376 0.0211
vn -0.8815 -0.4722 -0.0000
vn -0.0215 -0.3410 -0.9398
vn 0.0000 1.0000 0.0000
usemtl Material
s off
f 1/1/1 2/2/1 3/3/1 4/4/1
f 18/5/2 17/6/2 15/7/2 16/8/2
f 9/9/3 5/10/3 6/11/3 10/12/3
f 10/13/4 6/14/4 7/15/4 11/16/4
f 11/17/5 7/18/5 8/19/5 12/20/5
f 9/21/6 1/22/6 4/23/6 12/24/6
f 5/25/7 9/21/7 12/24/7 8/26/7
f 3/27/8 11/17/8 12/20/8 4/28/8
f 2/29/9 10/13/9 11/16/9 3/30/9
f 1/31/10 9/9/10 10/12/10 2/32/10
f 15/33/11 14/34/11 22/35/11 23/36/11
f 19/37/12 18/38/12 16/39/12 13/40/12
f 17/41/13 20/42/13 14/43/13 15/44/13
f 20/45/14 19/46/14 13/47/14 14/48/14
f 6/11/15 5/10/15 19/46/15 20/45/15
f 7/15/16 6/14/16 20/42/16 17/41/16
f 5/25/17 8/26/17 18/38/17 19/37/17
f 8/19/18 7/18/18 17/6/18 18/5/18
f 23/49/19 22/50/19 26/51/19 27/52/19
f 14/53/20 13/54/20 21/55/20 22/56/20
f 16/57/21 15/58/21 23/59/21 24/60/21
f 13/61/22 16/62/22 24/63/22 21/64/22
f 26/65/23 25/66/23 29/67/23 30/68/23
f 22/69/24 21/70/24 25/66/24 26/65/24
f 24/71/25 23/72/25 27/73/25 28/74/25
f 21/75/26 24/76/26 28/77/26 25/78/26
f 32/79/21 31/80/21 35/81/21 36/82/21
f 28/74/27 27/73/27 31/80/27 32/79/27
f 25/78/28 28/77/28 32/83/28 29/84/28
f 27/52/29 26/51/29 30/85/29 31/86/29
f 35/87/30 34/88/30 38/89/30 39/90/30
f 29/84/22 32/83/22 36/91/22 33/92/22
f 31/86/11 30/85/11 34/88/11 35/87/11
f 30/68/20 29/67/20 33/93/20 34/94/20
f 40/95/21 39/96/21 43/97/21 44/98/21
f 34/94/31 33/93/31 37/99/31 38/100/31
f 36/82/32 35/81/32 39/101/32 40/102/32
f 33/92/33 36/91/33 40/103/33 37/104/33
f 41/105/34 44/106/34 43/107/34 42/108/34
f 37/109/22 40/110/22 44/111/22 41/112/22
f 39/113/11 38/114/11 42/115/11 43/116/11
f 38/117/20 37/118/20 41/119/20 42/120/20
