# File generated by ImageToStl.com - Free Image and 3D model conversion tools

mtllib PEPSI.mtl

o obj1
v -0.01581609 0.03818328 0.11758386
v 0.015816 0.03818328 0.00794464
v -0.01581609 0.03818328 0.00794464
v 0.015816 0.03818328 0.11758386
v 0.03818326 0.01581601 0.00794464
v 0.03818326 0.01581601 0.11758386
v 0.03818327 -0.01581608 0.00794464
v 0.03818327 -0.01581608 0.11758386
v 0.015816 -0.03818334 0.00794464
v 0.015816 -0.03818334 0.11758386
v -0.01581609 -0.03818335 0.00794464
v -0.01581609 -0.03818335 0.11758386
v -0.03818336 -0.01581608 0.00794464
v -0.01279651 -0.03089344 0.13186228
v -0.03818336 -0.01581608 0.11758386
v -0.03818336 0.015816 0.00794464
v -0.03818336 0.015816 0.11758386
v 0.03583333 0.01484264 0
v -0.03583342 0.01484263 0
v 0.01484262 0.03583334 0
v 0.03583333 -0.0148427 0
v -0.01484272 -0.03583341 0
v -0.03583343 -0.0148427 0
v 0.01484262 -0.03583341 0
v -0.01484272 0.03583334 0
v -0.03089345 0.01279642 0.13186228
v -0.01279651 0.03089336 0.13546795
v -0.01279651 0.03089336 0.13186228
v 0.01279642 0.03089337 0.13186228
v 0.03089336 -0.0127965 0.13186228
v -0.03089345 -0.0127965 0.13186228
v 0.01279642 -0.03089343 0.13186228
v 0.03089335 0.01279643 0.13186228
v -0.03089345 -0.0127965 0.13546795
v 0.01279642 -0.03089343 0.13546795
v 0.03089335 0.01279643 0.13546795
v -0.03089345 0.01279642 0.13546795
v -0.01279651 -0.03089344 0.13546795
v 0.03089336 -0.0127965 0.13546795
v 0.01279642 0.03089337 0.13546795
v -0.02721103 -0.01127119 0.13546795
v -0.02721104 0.01127112 0.13296193
v -0.02721104 0.01127112 0.13546795
v 0.01127111 0.02721096 0.13546795
v -0.01127121 0.02721095 0.13546795
v 0.02721094 0.01127113 0.13546795
v 0.02721094 -0.01127119 0.13546795
v 0.01127111 -0.02721102 0.13546795
v -0.01127121 -0.02721102 0.13546795
v -0.02721103 -0.01127119 0.13296193
v 0.01127111 -0.02721102 0.13296193
v 0.02721094 0.01127113 0.13296193
v -0.01127121 -0.02721102 0.13296193
v 0.02721094 -0.01127119 0.13296193
v 0.01127111 0.02721096 0.13296193
v -0.01127121 0.02721095 0.13296193
vn -0.37186 0.89774 0.23617
vn 0.37843 0.91358 -0.14886
vn -0.37841 0.91359 -0.14886
vn 0.37185 0.89775 0.23617
vn 0.91359 0.37841 -0.14886
vn 0.89774 0.37186 0.23617
vn 0.91358 -0.37843 -0.14886
vn 0.89775 -0.37185 0.23617
vn 0.37841 -0.91359 -0.14886
vn 0.37186 -0.89774 0.23617
vn -0.37843 -0.91358 -0.14886
vn -0.37185 -0.89775 0.23617
vn -0.91359 -0.37841 -0.14886
vn -0.36891 -0.89063 0.26586
vn -0.89774 -0.37186 0.23617
vn -0.91358 0.37843 -0.14886
vn -0.89775 0.37185 0.23617
vn 0.61898 0.25639 -0.74238
vn -0.61899 0.25639 -0.74237
vn 0.25639 0.61898 -0.74238
vn 0.61898 -0.25639 -0.74238
vn -0.25639 -0.61898 -0.74238
vn -0.61898 -0.25639 -0.74238
vn 0.25639 -0.61897 -0.74239
vn -0.25639 0.61898 -0.74238
vn -0.89063 0.36891 0.26586
vn -0.29711 0.71729 0.63025
vn -0.36891 0.89063 0.26586
vn 0.36891 0.89063 0.26586
vn 0.89063 -0.36891 0.26586
vn -0.89063 -0.36891 0.26586
vn 0.36891 -0.89063 0.26586
vn 0.89063 0.36891 0.26586
vn -0.71729 -0.29711 0.63025
vn 0.29711 -0.71729 0.63025
vn 0.71729 0.29711 0.63025
vn -0.71729 0.29711 0.63025
vn -0.29711 -0.71729 0.63025
vn 0.71729 -0.29711 0.63025
vn 0.29711 0.71729 0.63025
vn 0.54913 0.22745 0.80419
vn 0.71729 -0.29711 0.63025
vn 0.54913 -0.22746 0.80419
vn -0.22746 -0.54913 0.80419
vn 0.22746 -0.54913 0.80419
vn -0.54913 -0.22746 0.80419
vn -0.54913 0.22746 0.80419
vn -0.22746 0.54913 0.80419
vn 0.22746 0.54914 0.80418
vn 0.71728 0.29711 0.63026
vn -0.29711 0.71729 0.63025
vn -0.71728 -0.29711 0.63026
vn 0.29711 0.71729 0.63025
vn -0.71729 0.29711 0.63025
vn -0.29711 -0.71729 0.63025
vn 0.29711 -0.71729 0.63025
vt 0.01763 0.92634
vt 0.01665 0.9213
vt 0.01763 0.92134
vt 0.01665 0.9263
vt 0.01527 0.9213
vt 0.01527 0.9263
vt 0.01429 0.92134
vt 0.01999 0.92634
vt 0.01902 0.9213
vt 0.01999 0.92134
vt 0.01902 0.9263
vt 0.01763 0.9213
vt 0.01429 0.92634
vt 0.01331 0.9213
vt 0.0211 0.93019
vt 0.02175 0.93149
vt 0.02112 0.93164
vt 0.01331 0.9263
vt 0.01193 0.9213
vt 0.01193 0.9263
vt 0.01095 0.92134
vt 0.17416 0.08134
vt 0.17378 0.08027
vt 0.17413 0.08032
vt 0.16508 0.08112
vt 0.16416 0.07881
vt 0.16638 0.07785
vt 0.17375 0.07888
vt 0.17344 0.07796
vt 0.17378 0.07785
vt 0.17136 0.08136
vt 0.17103 0.08045
vt 0.17138 0.08034
vt 0.17375 0.08032
vt 0.1734 0.07892
vt 0.17378 0.07892
vt 0.17413 0.07888
vt 0.17138 0.0828
vt 0.17101 0.08141
vt 0.17378 0.08134
vt 0.1734 0.08027
vt 0.17381 0.07796
vt 0.17416 0.07785
vt 0.18 0.0867
vt 0.18018 0.08752
vt 0.18002 0.08752
vt 0.02348 0.92915
vt 0.02414 0.92984
vt 0.02351 0.93017
vt 0.02413 0.92166
vt 0.02473 0.92281
vt 0.0241 0.92268
vt 0.0241 0.92412
vt 0.02476 0.92481
vt 0.02413 0.92514
vt 0.02348 0.92771
vt 0.02414 0.92702
vt 0.02411 0.92785
vt 0.02175 0.9295
vt 0.02174 0.93032
vt 0.02411 0.92902
vt 0.02473 0.92398
vt 0.18002 0.0847
vt 0.18015 0.08553
vt 0.18 0.08553
vt 0.17763 0.08718
vt 0.17777 0.088
vt 0.17762 0.088
vt 0.18061 0.0805
vt 0.18077 0.08166
vt 0.18061 0.08166
vt 0.18015 0.0867
vt 0.17779 0.08917
vt 0.17763 0.08917
vt 0.1808 0.08249
vt 0.18064 0.08249
vt 0.18064 0.07967
vt 0.18077 0.0805
vt 0.17414 0.08613
vt 0.17428 0.08685
vt 0.17417 0.08685
vt 0.17682 0.08527
vt 0.17698 0.08636
vt 0.17682 0.0863
vt 0.17612 0.08454
vt 0.17698 0.0852
vt 0.17514 0.08454
vt 0.17619 0.08437
vt 0.17444 0.08527
vt 0.17507 0.08437
vt 0.17444 0.0863
vt 0.17428 0.0852
vt 0.17507 0.08719
vt 0.17428 0.08636
vt 0.17612 0.08702
vt 0.17514 0.08702
vt 0.17619 0.08719
vt 0.17406 0.07581
vt 0.17336 0.07756
vt 0.17168 0.07683
vt 0.17417 0.08437
vt 0.17425 0.0851
vt 0.17414 0.0851
vt 0.17428 0.08861
vt 0.17417 0.08758
vt 0.17428 0.08758
vt 0.17815 0.08758
vt 0.17828 0.08861
vt 0.17817 0.08861
vt 0.17817 0.08686
vt 0.17826 0.08758
vt 0.17425 0.08613
vt 0.17414 0.08685
vt 0.17425 0.08685
vt 0.17425 0.08934
vt 0.17417 0.08861
vt 0.01763 0.9263
vt 0.01095 0.92634
vt 0.17381 0.08123
vt 0.16416 0.08017
vt 0.16508 0.07785
vt 0.16729 0.07881
vt 0.16729 0.08017
vt 0.16638 0.08112
vt 0.17103 0.08276
vt 0.17344 0.08123
vt 0.02476 0.92199
vt 0.02351 0.92669
vt 0.02112 0.92917
vt 0.18018 0.0847
vt 0.17779 0.08718
vt 0.1808 0.07967
vt 0.17168 0.07581
vt 0.17238 0.07508
vt 0.17336 0.07508
vt 0.17406 0.07683
vt 0.17238 0.07756
vt 0.17428 0.08437
vt 0.17828 0.08685
vt 0.17414 0.08934
usemtl mat0
f 1/1/1 2/2/2 3/3/3
f 4/4/4 5/5/5 2/2/2
f 6/6/6 7/7/7 5/5/5
f 8/8/8 9/9/9 7/10/7
f 10/11/10 11/12/11 9/9/9
f 12/13/12 13/14/13 11/7/11
f 10/15/10 14/16/14 12/17/12
f 15/18/15 16/19/16 13/14/13
f 17/20/17 3/21/3 16/19/16
f 7/22/7 18/23/18 5/24/5
f 19/25/19 20/26/20 21/27/21
f 13/28/13 22/29/22 11/30/11
f 9/31/9 21/32/21 7/33/7
f 16/34/16 23/35/23 13/28/13
f 5/24/5 20/36/20 2/37/2
f 11/38/11 24/39/24 9/31/9
f 3/40/3 19/41/19 16/34/16
f 2/37/2 25/42/25 3/43/3
f 26/44/26 27/45/27 28/46/28
f 17/47/17 28/48/28 1/49/1
f 1/50/1 29/51/29 4/52/4
f 6/53/6 30/54/30 8/55/8
f 15/56/15 14/57/14 31/58/31
f 10/15/10 30/59/30 32/60/32
f 15/56/15 26/61/26 17/47/17
f 6/53/6 29/51/29 33/62/33
f 14/63/14 34/64/34 31/65/31
f 30/66/30 35/67/35 32/68/32
f 29/69/29 36/70/36 33/71/33
f 31/65/31 37/72/37 26/44/26
f 32/68/32 38/73/38 14/74/14
f 33/71/33 39/75/39 30/76/30
f 28/77/28 40/78/40 29/69/29
f 41/79/41 42/80/42 43/81/43
f 44/82/44 27/83/27 45/84/45
f 46/85/46 40/86/40 44/82/44
f 47/87/47 36/88/36 46/85/46
f 48/89/48 39/90/39 47/87/47
f 49/91/49 35/92/35 48/89/48
f 49/91/49 34/93/34 38/94/38
f 43/95/43 34/93/34 41/96/41
f 45/84/45 37/97/37 43/95/43
f 50/98/50 51/99/51 52/100/52
f 48/101/48 53/102/53 49/103/49
f 46/104/46 54/105/54 47/106/47
f 45/107/45 55/108/55 44/109/44
f 43/110/43 56/111/56 45/107/45
f 49/103/49 50/112/50 41/79/41
f 47/106/47 51/113/51 48/114/48
f 44/115/44 52/116/52 46/104/46
f 1/1/1 4/4/4 2/2/2
f 4/4/4 6/6/6 5/5/5
f 6/6/6 8/13/8 7/7/7
f 8/8/8 10/11/10 9/9/9
f 10/11/10 12/117/12 11/12/11
f 12/13/12 15/18/15 13/14/13
f 10/15/10 32/60/32 14/16/14
f 15/18/15 17/20/17 16/19/16
f 17/20/17 1/118/1 3/21/3
f 7/22/7 21/119/21 18/23/18
f 19/25/19 25/120/25 20/26/20
f 20/26/20 18/121/18 21/27/21
f 21/27/21 24/122/24 19/25/19
f 24/122/24 22/123/22 19/25/19
f 22/123/22 23/124/23 19/25/19
f 13/28/13 23/35/23 22/29/22
f 9/31/9 24/39/24 21/32/21
f 16/34/16 19/41/19 23/35/23
f 5/24/5 18/23/18 20/36/20
f 11/38/11 22/125/22 24/39/24
f 3/40/3 25/126/25 19/41/19
f 2/37/2 20/36/20 25/42/25
f 26/44/26 37/72/37 27/45/27
f 17/47/17 26/61/26 28/48/28
f 1/50/1 28/127/28 29/51/29
f 6/53/6 33/62/33 30/54/30
f 15/56/15 12/128/12 14/57/14
f 10/15/10 8/129/8 30/59/30
f 15/56/15 31/58/31 26/61/26
f 6/53/6 4/52/4 29/51/29
f 14/63/14 38/130/38 34/64/34
f 30/66/30 39/131/39 35/67/35
f 29/69/29 40/78/40 36/70/36
f 31/65/31 34/64/34 37/72/37
f 32/68/32 35/67/35 38/73/38
f 33/71/33 36/70/36 39/75/39
f 28/77/28 27/132/27 40/78/40
f 41/79/41 50/112/50 42/80/42
f 44/82/44 40/86/40 27/83/27
f 46/85/46 36/88/36 40/86/40
f 47/87/47 39/90/39 36/88/36
f 48/89/48 35/92/35 39/90/39
f 49/91/49 38/94/38 35/92/35
f 49/91/49 41/96/41 34/93/34
f 43/95/43 37/97/37 34/93/34
f 45/84/45 27/83/27 37/97/37
f 52/100/52 55/133/55 56/134/56
f 56/134/56 42/135/42 50/98/50
f 50/98/50 53/136/53 51/99/51
f 51/99/51 54/137/54 52/100/52
f 52/100/52 56/134/56 50/98/50
f 48/101/48 51/138/51 53/102/53
f 46/104/46 52/116/52 54/105/54
f 45/107/45 56/111/56 55/108/55
f 43/110/43 42/139/42 56/111/56
f 49/103/49 53/102/53 50/112/50
f 47/106/47 54/105/54 51/113/51
f 44/115/44 55/140/55 52/116/52
# Vertices: 56, normals: 56, texture coordinates: 140, faces: 108

